# xmcd
#
# Track frame offsets: 
#        150
#        14058
#        28490
#        42095
#        58288
#        71765
#        84075
#        98715
#        112490
#        127088
#        142888
#        155185
#        171385
#        185105
#        199348
#        214095
#        227398
#        240748
#        253345
#        267228
#        282423
#
# Disc length: 3952 seconds
#
# Revision: 0
# Processed by: cddbd v1.5.2PL0 Copyright (c) Steve Scherf et al.
# Submitted via: ExactAudioCopy v0.95b3
#
DISCID=510f6e15
DTITLE=Benny Carter  - Volume 2 1931-1933 Complete Edition
DYEAR=1900
DGENRE=
TTITLE0=Heebie Jeebies
TTITLE1=Blues In My Heart
TTITLE2=Do You Believe In Love At Sight
TTITLE3=Wrap Your Troubles In Dreams
TTITLE4=Tell All Your Day Dreams To Me
TTITLE5=Hot Toddy
TTITLE6=Jazz Cocktail
TTITLE7=Jazz Cocktail
TTITLE8=Swing It
TTITLE9=Synthetic Love
TTITLE10=Six Bells Stampede
TTITLE11=Love. You're Not The One For Me
TTITLE12=Nocturne
TTITLE13=Someone Stole Gabriel's Horn
TTITLE14=Pastorale
TTITLE15=Bugle Call Rag
TTITLE16=Fanfare
TTITLE17=Music At Midnight
TTITLE18=Sweet Sue. Just You
TTITLE19=Firebird
TTITLE20=Ol' Man River
EXTD=
EXTT0=
EXTT1=
EXTT2=
EXTT3=
EXTT4=
EXTT5=
EXTT6=
EXTT7=
EXTT8=
EXTT9=
EXTT10=
EXTT11=
EXTT12=
EXTT13=
EXTT14=
EXTT15=
EXTT16=
EXTT17=
EXTT18=
EXTT19=
EXTT20=
PLAYORDER=
